HIERARCHY
ROOT hip
{
	OFFSET 0.000000 0.000000 0.000000 
	CHANNELS 6 Xposition Yposition Zposition Xrotation Zrotation Yrotation
	JOINT abdomen
	{
		OFFSET 0.000000 3.402643 0.000000 
		CHANNELS 3 Xrotation Zrotation Yrotation
		JOINT chest
		{
			OFFSET 0.000000 8.438565 -0.680529 
			CHANNELS 3 Xrotation Zrotation Yrotation
			JOINT neck
			{
				OFFSET 0.000000 10.207942 -0.272212 
				CHANNELS 3 Xrotation Zrotation Yrotation
				JOINT head
				{
					OFFSET 0.000000 3.130431 0.000000 
					CHANNELS 3 Xrotation Zrotation Yrotation
					End Site
					{
						OFFSET 0.000000 3.130435 0.000000 
					}
				}
			}
			JOINT lCollar
			{
				OFFSET 3.470700 6.669187 -0.816635 
				CHANNELS 3 Yrotation Zrotation Xrotation
				JOINT lShldr
				{
					OFFSET 3.198488 0.000000 0.000000 
					CHANNELS 3 Zrotation Yrotation Xrotation
					JOINT lForeArm
					{
						OFFSET 10.139888 0.000000 0.000000 
						CHANNELS 3 Yrotation Zrotation Xrotation
						JOINT lHand
						{
							OFFSET 8.370511 0.000000 0.000000 
							CHANNELS 3 Zrotation Yrotation Xrotation
							End Site
							{
								OFFSET 4.083176 0.000000 0.000000 
							}
						}
					}
				}
			}
			JOINT rCollar
			{
				OFFSET -3.470700 6.669187 -0.816635 
				CHANNELS 3 Yrotation Zrotation Xrotation
				JOINT rShldr
				{
					OFFSET -3.198488 0.000000 0.000000 
					CHANNELS 3 Zrotation Yrotation Xrotation
					JOINT rForeArm
					{
						OFFSET -10.139888 0.000000 0.000000 
						CHANNELS 3 Yrotation Zrotation Xrotation
						JOINT rHand
						{
							OFFSET -8.370511 0.000000 0.000000 
							CHANNELS 3 Zrotation Yrotation Xrotation
							End Site
							{
								OFFSET -4.083176 0.000000 0.000000 
							}
						}
					}
				}
			}
		}
	}
	JOINT lThigh
	{
		OFFSET 5.308129 -1.633274 1.361059 
		CHANNELS 3 Xrotation Zrotation Yrotation
		JOINT lShin
		{
			OFFSET -2.041588 -20.007561 0.000000 
			CHANNELS 3 Xrotation Zrotation Yrotation
			JOINT lFoot
			{
				OFFSET 0.000000 -19.190928 -1.224953 
				CHANNELS 3 Xrotation Yrotation Zrotation
				End Site
				{
					OFFSET 0.000000 -2.449906 4.627600 
				}
			}
		}
	}
	JOINT rThigh
	{
		OFFSET -5.308129 -1.633274 1.361059 
		CHANNELS 3 Xrotation Zrotation Yrotation
		JOINT rShin
		{
			OFFSET 2.041588 -20.007561 0.000000 
			CHANNELS 3 Xrotation Zrotation Yrotation
			JOINT rFoot
			{
				OFFSET 0.000000 -19.190928 -1.224953 
				CHANNELS 3 Xrotation Yrotation Zrotation
				End Site
				{
					OFFSET 0.000000 -2.449906 4.627600 
				}
			}
		}
	}
}
MOTION
Frames: 18
Frame Time: 0.033333
-62.235806 47.155544 44.782440 -179.492996 175.793594 -2.007303 0.000000 0.000000 0.000000 0.483552 -0.312149 -2.714910 4.192965 -1.163087 -10.168260 2.899915 3.922752 -8.369324 -12.245627 -2.143315 0.831112 -71.427895 18.174509 13.905970 -42.363472 -7.156835 15.559992 8.030526 5.753043 -3.362861 6.776286 7.330943 0.469119 62.636303 -19.522432 9.010394 45.220413 7.945692 15.869388 -7.083462 -7.041733 -3.330962 -6.510232 5.807005 4.472960 30.196991 -3.485314 11.621055 -22.957329 0.516830 -2.389798 -13.484223 -5.887832 -0.574071 1.259535 4.149469 0.057484 7.501732 0.361540 5.399187 
-62.186325 47.044815 44.148232 179.684479 176.340195 -2.035210 0.000000 0.000000 0.000000 -0.063498 -0.273046 -3.066464 3.976503 -1.382794 -10.481793 2.435885 4.460384 -8.668607 -12.769390 -2.894660 0.276825 -70.123840 18.066063 14.006852 -42.371105 -7.318811 14.263767 8.011208 5.898504 -3.353090 6.447692 6.989994 -0.020452 62.472645 -20.075409 8.936750 44.858486 7.978645 15.485418 -7.812994 -6.642170 -3.334132 -6.484267 5.312427 4.164686 30.229580 -3.491613 11.714850 -23.800753 0.606109 -2.733021 -13.600924 -5.545946 0.655133 -1.687021 1.657630 -0.274763 8.984015 0.575878 7.600742 
-62.159172 46.965782 43.473667 178.890503 177.335999 -2.228694 0.000000 0.000000 0.000000 -0.533931 -0.594817 -3.125237 3.597627 -1.496150 -10.863276 2.403423 4.390732 -8.843860 -12.848299 -2.426201 -0.152203 -70.194542 17.086111 13.641916 -41.210114 -7.256789 14.281674 6.358166 5.784877 -3.395778 6.170137 6.724707 -0.401068 62.563324 -20.533636 8.305150 44.238422 7.815271 15.379634 -7.429041 -6.261635 -3.359769 -6.146474 4.243374 3.732680 29.594551 -3.554626 12.778718 -24.238256 0.716895 -3.265922 -15.063048 -5.506224 1.662443 0.232467 -0.969294 -0.014702 9.903982 0.817210 9.409939 
-62.084290 46.883743 42.652878 178.373322 177.970901 -2.638176 0.000000 0.000000 0.000000 -0.907764 -0.526505 -3.232644 3.035808 -1.331829 -11.145658 2.775392 3.504346 -8.687769 -13.096875 -2.387231 -0.485505 -69.320030 16.505291 13.680262 -40.245289 -7.320094 14.941541 5.462367 5.596844 -3.421420 6.000179 6.487474 -0.724079 62.616886 -20.946426 8.035818 43.548664 7.775277 15.473269 -7.565451 -5.967887 -3.377052 -5.416720 3.523102 3.441633 28.982077 -3.540785 14.689124 -24.719574 0.918482 -4.230332 -18.320791 -4.812478 2.526021 8.224731 -2.616290 0.573132 8.000504 0.740474 10.057889 
-61.951633 46.777893 41.686481 177.756241 178.254547 -3.126226 0.000000 0.000000 0.000000 -1.553468 -0.146206 -3.535170 2.628627 -1.398993 -11.126603 2.810181 4.150695 -8.733856 -13.271524 -2.171761 -0.979853 -68.550278 16.421755 13.537423 -39.094177 -7.381136 15.326197 4.437446 4.989800 -3.458929 5.826581 6.527083 -1.330638 62.428501 -21.656029 8.006238 42.964161 7.849143 15.410564 -7.644153 -5.531143 -3.391532 -4.216965 3.240648 3.298587 28.206614 -3.412188 14.933075 -25.649508 1.100631 -4.801577 -21.787996 -3.807993 3.052591 17.581219 -3.201922 0.831936 1.677441 0.150042 9.648834 
-61.761307 46.612152 40.574184 177.529114 178.362900 -3.761298 0.000000 0.000000 0.000000 -2.077037 0.399529 -3.759810 2.152324 -1.121449 -11.037411 3.280817 3.815609 -8.456351 -13.570300 -1.745448 -1.348701 -67.873238 17.160048 13.416540 -39.127838 -7.392636 15.895399 6.521466 5.669402 -3.404878 5.540267 6.518284 -1.811279 62.409775 -22.589827 8.108301 42.953979 7.937615 14.343515 -8.146726 -5.753033 -3.372768 -2.505569 3.119261 3.182535 27.605875 -3.130518 15.666948 -26.736916 1.355379 -5.773062 -23.294085 -3.104906 3.238441 22.552053 -3.391554 1.014534 -2.025115 -0.147040 9.150047 
-61.534683 46.582497 39.476143 177.266968 177.867676 -4.416813 0.000000 0.000000 0.000000 -2.495296 1.354236 -3.926760 1.840780 -0.421602 -11.133154 3.298256 3.825172 -8.466096 -13.738485 -0.507548 -1.479941 -67.918648 17.110445 13.340516 -38.027718 -7.564065 16.241316 7.196262 5.803922 -3.384363 5.254580 7.622462 -2.258874 62.016075 -23.986139 7.223920 43.720787 7.633696 14.086658 -8.740299 -6.372802 -3.317541 -0.566415 3.445007 3.138064 26.034550 -2.686243 16.849138 -27.046843 1.659439 -6.751865 -23.390579 -2.714759 2.982964 24.363958 -2.685415 1.130661 -3.899668 -0.255400 8.483100 
-61.258537 46.642960 38.391109 176.740326 176.530243 -5.595760 0.000000 0.000000 0.000000 -2.970977 3.058013 -4.244217 1.428050 0.546619 -10.889103 3.369676 3.972246 -8.251743 -13.721498 0.895925 -1.508486 -68.142937 17.340946 12.734954 -37.201786 -7.458625 17.156507 6.891188 5.988452 -3.379358 5.270680 9.188053 -2.819749 61.354313 -24.895399 6.504573 44.192684 7.473394 13.292875 -7.782738 -5.198955 -3.416911 1.912991 4.519946 3.647945 23.460066 -2.218416 17.549496 -27.143494 1.796899 -7.360026 -22.737009 -1.562281 2.545520 25.022560 -1.439379 1.363916 -5.567107 -0.343461 7.340215 
-60.946659 46.795097 37.309963 176.175598 176.879333 -7.070757 0.000000 0.000000 0.000000 -3.662329 3.281200 -4.431095 1.231361 0.958947 -10.899835 2.943722 3.587930 -7.993943 -13.959554 1.496034 -2.047471 -68.272461 18.587860 11.964501 -37.444008 -7.209797 17.739822 6.622493 6.205639 -3.378215 4.896963 8.994970 -3.411977 62.021111 -25.423141 5.641675 44.366249 7.226944 13.203310 -7.195867 -5.510398 -3.404511 5.812257 4.175465 3.972815 17.756411 -2.590903 17.034122 -25.849695 1.533478 -6.607395 -22.334936 -1.299216 2.447230 25.298132 -1.094574 1.062288 -6.686481 -0.369800 6.520150 
-60.596535 47.027138 36.243206 -3.828086 2.076240 171.440002 0.000000 0.000000 0.000000 -4.057806 2.754915 -4.565590 1.201867 1.054599 -10.968511 3.291380 3.502711 -7.777718 -14.175241 1.782949 -2.452905 -68.283897 19.430483 11.987809 -37.965988 -7.286819 16.556210 6.217092 7.011023 -3.355451 4.667511 8.574366 -3.733534 62.652431 -25.642361 5.175337 44.470650 7.133111 12.708060 -6.480974 -5.539568 -3.415128 8.718641 3.613312 4.219937 15.276032 -3.240948 12.704388 -23.210293 1.026467 -4.921689 -21.254000 -1.435194 2.396844 24.946209 -1.312518 1.007789 -7.419446 -0.373316 5.836640 
-60.190998 47.255325 35.212936 -3.750609 1.381198 169.166748 0.000000 0.000000 0.000000 -4.403666 2.453985 -4.310210 1.281219 1.064779 -10.802524 3.927855 4.004817 -7.889944 -14.238263 2.163511 -2.784094 -68.250908 20.054634 11.991411 -38.252945 -7.374573 16.258150 6.918605 7.608287 -3.304851 4.376003 7.941354 -3.966091 63.552555 -25.435694 5.219097 44.517139 7.069033 12.615364 -6.325212 -5.529166 -3.420537 4.091165 4.414009 5.522834 27.689657 -3.880626 6.556837 -19.927889 0.729622 -3.952580 -19.956383 -1.073943 2.436076 24.070206 -1.439506 0.939525 -7.737745 -0.341917 5.031066 
-59.824032 47.331131 34.237366 -3.394866 0.749716 166.356308 0.000000 0.000000 0.000000 -4.456851 2.182339 -3.938266 1.482312 1.171498 -10.490456 4.494857 4.111993 -7.812699 -13.562652 2.522967 -2.878214 -67.638733 20.171736 13.407732 -39.314686 -7.754592 15.896917 8.241687 7.836493 -3.233193 4.404348 7.985732 -4.005927 63.458012 -25.457108 5.526212 45.684765 6.974861 12.944923 -6.142615 -5.340004 -3.428300 1.013936 4.711281 7.025958 37.409042 -4.479243 5.757132 -13.053777 0.597885 -4.953870 -19.075167 -0.995913 2.135172 24.724051 -1.058657 1.033018 -8.931913 -0.322624 3.905568 
-59.510757 47.335178 33.366699 -3.425780 0.552321 163.456314 0.000000 0.000000 0.000000 -4.649575 2.387399 -3.772763 1.660522 1.393137 -10.315353 4.798523 4.044457 -7.792531 -13.126991 2.720465 -3.026205 -67.394997 19.902674 13.651746 -39.539082 -7.657512 16.263380 7.874113 7.919383 -3.247569 4.578880 7.883004 -4.180025 63.543236 -25.048653 5.779261 46.644928 6.835134 12.692815 -5.505670 -5.218866 -3.447600 -2.361489 6.164636 8.884032 44.550274 -5.164442 5.529574 -5.696774 0.381401 -6.656159 -18.742388 -0.644822 1.936116 25.327625 -0.508666 1.134904 -9.854976 -0.264035 2.917773 
-59.267357 47.345352 32.537548 -3.066844 0.607517 160.487137 0.000000 0.000000 0.000000 -4.310213 2.699130 -3.802885 1.882516 1.528070 -10.228226 5.590830 4.450616 -7.816308 -12.843762 2.542948 -2.705607 -67.120361 19.052851 13.588949 -39.364708 -7.502735 16.709963 8.201516 7.697412 -3.249615 4.635444 8.280110 -3.908462 62.882214 -24.007853 6.265505 47.511173 6.834404 12.369828 -5.161723 -5.410522 -3.438715 -5.768559 7.572755 9.962656 50.805500 -5.100719 6.362819 4.437482 -0.384807 -9.708904 -17.860580 -0.361264 1.561139 25.643303 0.034675 1.307813 -10.579537 -0.191309 2.017225 
-59.072453 47.403080 31.793476 -2.821374 0.296587 156.972382 0.000000 0.000000 0.000000 -4.087162 2.787108 -3.715089 2.316527 1.518924 -10.130345 5.652670 4.296018 -7.795354 -12.444492 1.969893 -2.546994 -66.878891 18.181856 13.243518 -38.917572 -7.400327 16.383062 9.236503 7.986151 -3.188703 4.810944 8.272977 -3.710585 62.549698 -22.666864 6.762362 47.910969 6.793628 12.679634 -5.575665 -5.644511 -3.427209 -8.779149 8.339608 9.995007 53.736820 -4.738519 4.988347 9.788505 -0.789364 -9.517650 -17.174757 -0.341719 1.286877 25.493324 0.513263 1.381355 -10.889077 -0.099540 1.197141 
-58.857105 47.404381 31.135733 -2.365312 0.156442 152.871002 0.000000 0.000000 0.000000 -3.609301 2.710573 -3.216219 3.084156 1.655342 -9.769691 4.985454 4.150401 -7.842618 -11.943543 1.500970 -2.197810 -66.967873 17.296267 12.544033 -38.952770 -7.191354 15.856421 10.179661 8.181837 -3.137778 5.672601 8.805219 -3.376111 61.801662 -21.797110 7.073078 48.883831 6.799839 12.098576 -8.839240 -5.772033 -3.355709 -10.495862 8.708436 9.562743 54.686974 -4.084728 5.469381 7.362567 -0.609492 -10.307714 -16.586538 -0.010096 1.222858 25.657812 0.701869 1.359841 -11.179772 -0.046564 0.540985 
-58.715073 47.517895 30.433344 -1.613417 0.083332 148.574188 0.000000 0.000000 0.000000 -2.887309 2.643597 -2.678337 3.731324 1.589756 -9.388164 5.104060 4.023781 -7.929593 -11.345484 1.288087 -1.599380 -67.626831 15.804979 12.120372 -38.613354 -7.080329 15.062461 10.579821 9.043298 -3.043766 5.914109 8.367242 -2.682787 62.076244 -20.041828 7.204747 48.890205 6.864903 11.061725 -8.486454 -5.933499 -3.352840 -12.585732 8.406252 8.303350 55.384163 -3.148216 4.063051 6.598286 -0.459812 -8.789257 -15.287993 -0.575756 0.375548 24.888531 1.938825 1.476113 -10.964209 0.071849 -0.658274 
-58.555218 47.608368 29.774866 -0.963295 -0.031549 143.867188 0.000000 0.000000 0.000000 -2.274086 2.371468 -2.091286 4.352467 1.524604 -8.850736 4.648942 3.753666 -7.848370 -10.831436 1.035211 -1.122359 -68.006363 14.685431 12.157429 -38.990982 -7.132936 13.860713 10.655488 9.472898 -3.015779 6.526156 8.133872 -2.129072 62.252071 -18.734795 7.217445 49.075069 6.945150 11.745542 -9.099253 -5.682599 -3.357369 -13.939178 8.247237 7.042360 54.116947 -2.425651 6.171421 2.518442 -0.184005 -10.440375 -14.269285 -1.142149 -0.309108 24.234394 3.055924 1.627741 -10.723194 0.184502 -1.761388 
